<?xml version="1.0" encoding="UTF-8" standalone="no"?>
<!DOCTYPE svg PUBLIC "-//W3C//DTD SVG 1.1//EN"
 "http://www.w3.org/Graphics/SVG/1.1/DTD/svg11.dtd">
<!-- Generated by graphviz version 12.2.1 (0)
 -->
<!-- Pages: 1 -->
<svg width="1153pt" height="403pt"
 viewBox="0.00 0.00 1152.89 402.75" xmlns="http://www.w3.org/2000/svg" xmlns:xlink="http://www.w3.org/1999/xlink">
<g id="graph0" class="graph" transform="scale(1 1) rotate(0) translate(4 398.75)">
<polygon fill="white" stroke="none" points="-4,4 -4,-398.75 1148.89,-398.75 1148.89,4 -4,4"/>
<!-- BooleanValue -->
<g id="node1" class="node">
<title>BooleanValue</title>
<ellipse fill="none" stroke="black" cx="147.49" cy="-201" rx="78.57" ry="18"/>
<text text-anchor="middle" x="147.49" y="-196.32" font-family="Times,serif" font-size="14.00">BooleanValue</text>
</g>
<!-- StringValue -->
<g id="node2" class="node">
<title>StringValue</title>
<ellipse fill="none" stroke="black" cx="401.12" cy="-179" rx="70.15" ry="18"/>
<text text-anchor="middle" x="401.12" y="-174.32" font-family="Times,serif" font-size="14.00">StringValue</text>
</g>
<!-- BooleanValue&#45;&gt;StringValue -->
<g id="edge1" class="edge">
<title>BooleanValue&#45;&gt;StringValue</title>
<path fill="none" stroke="black" d="M210.04,-189.72C243,-185.88 283.99,-182.15 319.46,-179.7"/>
<polygon fill="black" stroke="black" points="319.51,-183.21 329.26,-179.06 319.05,-176.22 319.51,-183.21"/>
</g>
<!-- JSONValue -->
<g id="node3" class="node">
<title>JSONValue</title>
<ellipse fill="none" stroke="black" cx="924.22" cy="-178" rx="65.41" ry="18"/>
<text text-anchor="middle" x="924.22" y="-173.32" font-family="Times,serif" font-size="14.00">JSONValue</text>
</g>
<!-- BooleanValue&#45;&gt;JSONValue -->
<g id="edge2" class="edge">
<title>BooleanValue&#45;&gt;JSONValue</title>
<path fill="none" stroke="black" d="M217.84,-209.36C289.8,-221.96 405.78,-243.57 507.27,-252 574.07,-257.55 591.23,-256.84 658.09,-252 731.88,-246.65 753.01,-252.53 822.81,-228 842.9,-220.94 863.46,-209.7 880.69,-199.54"/>
<polygon fill="black" stroke="black" points="882.34,-202.64 889.13,-194.51 878.75,-196.63 882.34,-202.64"/>
</g>
<!-- StringValue&#45;&gt;BooleanValue -->
<g id="edge3" class="edge">
<title>StringValue&#45;&gt;BooleanValue</title>
<path fill="none" stroke="black" d="M343.75,-189.67C312.53,-193.41 273,-197.12 237.68,-199.69"/>
<polygon fill="black" stroke="black" points="237.62,-196.19 227.89,-200.38 238.11,-203.17 237.62,-196.19"/>
</g>
<!-- StringValue&#45;&gt;StringValue -->
<g id="edge6" class="edge">
<title>StringValue&#45;&gt;StringValue</title>
<path fill="none" stroke="black" d="M369.48,-195.29C361.85,-205.39 372.4,-215 401.12,-215 418.17,-215 428.82,-211.61 433.06,-206.74"/>
<polygon fill="black" stroke="black" points="436.56,-206.71 432.8,-196.8 429.56,-206.89 436.56,-206.71"/>
</g>
<!-- StringValue&#45;&gt;JSONValue -->
<g id="edge7" class="edge">
<title>StringValue&#45;&gt;JSONValue</title>
<path fill="none" stroke="black" d="M446.52,-164.87C523.45,-147.53 686.38,-123.98 822.81,-142 843.95,-144.79 866.97,-150.76 885.62,-157.26"/>
<polygon fill="black" stroke="black" points="884.33,-160.51 894.92,-160.71 886.76,-153.95 884.33,-160.51"/>
</g>
<!-- FloatValue -->
<g id="node4" class="node">
<title>FloatValue</title>
<ellipse fill="none" stroke="black" cx="758.45" cy="-178" rx="64.36" ry="18"/>
<text text-anchor="middle" x="758.45" y="-173.32" font-family="Times,serif" font-size="14.00">FloatValue</text>
</g>
<!-- StringValue&#45;&gt;FloatValue -->
<g id="edge5" class="edge">
<title>StringValue&#45;&gt;FloatValue</title>
<path fill="none" stroke="black" d="M468.12,-173.43C529.75,-171.5 621.52,-171.18 685.11,-172.64"/>
<polygon fill="black" stroke="black" points="684.65,-176.13 694.74,-172.89 684.83,-169.14 684.65,-176.13"/>
</g>
<!-- IntegerValue -->
<g id="node5" class="node">
<title>IntegerValue</title>
<ellipse fill="none" stroke="black" cx="582.68" cy="-234" rx="75.41" ry="18"/>
<text text-anchor="middle" x="582.68" y="-229.32" font-family="Times,serif" font-size="14.00">IntegerValue</text>
</g>
<!-- StringValue&#45;&gt;IntegerValue -->
<g id="edge4" class="edge">
<title>StringValue&#45;&gt;IntegerValue</title>
<path fill="none" stroke="black" d="M457.95,-189.8C482.92,-196.76 512.01,-205.77 535.7,-213.94"/>
<polygon fill="black" stroke="black" points="534.49,-217.22 545.08,-217.24 536.81,-210.62 534.49,-217.22"/>
</g>
<!-- JSONValue&#45;&gt;BooleanValue -->
<g id="edge9" class="edge">
<title>JSONValue&#45;&gt;BooleanValue</title>
<path fill="none" stroke="black" d="M908.15,-195.72C889.27,-212.06 855.43,-234.54 822.81,-246 753.01,-270.53 731.88,-264.65 658.09,-270 591.23,-274.84 574.07,-275.55 507.27,-270 398.09,-260.93 272.14,-236.6 202.27,-219.06"/>
<polygon fill="black" stroke="black" points="203.57,-215.78 193.01,-216.68 201.83,-222.56 203.57,-215.78"/>
</g>
<!-- JSONValue&#45;&gt;StringValue -->
<g id="edge12" class="edge">
<title>JSONValue&#45;&gt;StringValue</title>
<path fill="none" stroke="black" d="M867.19,-168.86C852.87,-165.36 837.39,-161.93 822.81,-160 703.3,-144.21 563.46,-160.32 478.9,-171.43"/>
<polygon fill="black" stroke="black" points="478.56,-167.95 469.1,-172.73 479.47,-174.89 478.56,-167.95"/>
</g>
<!-- JSONValue&#45;&gt;JSONValue -->
<g id="edge13" class="edge">
<title>JSONValue&#45;&gt;JSONValue</title>
<path fill="none" stroke="black" d="M895.91,-194.66C889.62,-204.62 899.06,-214 924.22,-214 939.16,-214 948.56,-210.69 952.41,-205.92"/>
<polygon fill="black" stroke="black" points="955.91,-206.21 952.51,-196.18 948.91,-206.14 955.91,-206.21"/>
</g>
<!-- JSONValue&#45;&gt;FloatValue -->
<g id="edge11" class="edge">
<title>JSONValue&#45;&gt;FloatValue</title>
<path fill="none" stroke="black" d="M862.58,-184.54C852.13,-184.75 841.19,-184.8 830.5,-184.7"/>
<polygon fill="black" stroke="black" points="830.6,-181.2 820.55,-184.55 830.5,-188.2 830.6,-181.2"/>
</g>
<!-- JSONValue&#45;&gt;IntegerValue -->
<g id="edge10" class="edge">
<title>JSONValue&#45;&gt;IntegerValue</title>
<path fill="none" stroke="black" d="M894.47,-194.49C874.53,-201.78 847.26,-209.25 822.81,-214 772.38,-223.79 715.28,-230.86 669.53,-234.57"/>
<polygon fill="black" stroke="black" points="669.37,-231.08 659.67,-235.33 669.91,-238.05 669.37,-231.08"/>
</g>
<!-- NullValue -->
<g id="node6" class="node">
<title>NullValue</title>
<ellipse fill="none" stroke="black" cx="1085.26" cy="-178" rx="59.63" ry="18"/>
<text text-anchor="middle" x="1085.26" y="-173.32" font-family="Times,serif" font-size="14.00">NullValue</text>
</g>
<!-- JSONValue&#45;&gt;NullValue -->
<g id="edge8" class="edge">
<title>JSONValue&#45;&gt;NullValue</title>
<path fill="none" stroke="black" d="M985.8,-171.42C996.24,-171.23 1007.15,-171.2 1017.74,-171.33"/>
<polygon fill="black" stroke="black" points="1017.49,-174.83 1027.56,-171.51 1017.62,-167.83 1017.49,-174.83"/>
</g>
<!-- FloatValue&#45;&gt;StringValue -->
<g id="edge15" class="edge">
<title>FloatValue&#45;&gt;StringValue</title>
<path fill="none" stroke="black" d="M696.69,-183.4C636.84,-185.43 545.15,-185.84 479.98,-184.48"/>
<polygon fill="black" stroke="black" points="480.13,-180.98 470.05,-184.25 479.97,-187.98 480.13,-180.98"/>
</g>
<!-- FloatValue&#45;&gt;JSONValue -->
<g id="edge16" class="edge">
<title>FloatValue&#45;&gt;JSONValue</title>
<path fill="none" stroke="black" d="M819.04,-171.48C829.45,-171.26 840.38,-171.2 851.08,-171.29"/>
<polygon fill="black" stroke="black" points="851.01,-174.79 861.06,-171.43 851.11,-167.79 851.01,-174.79"/>
</g>
<!-- FloatValue&#45;&gt;IntegerValue -->
<g id="edge14" class="edge">
<title>FloatValue&#45;&gt;IntegerValue</title>
<path fill="none" stroke="black" d="M725.03,-193.84C704.3,-201.73 676.63,-211.04 651.28,-218.82"/>
<polygon fill="black" stroke="black" points="650.59,-215.37 642.03,-221.61 652.61,-222.07 650.59,-215.37"/>
</g>
<!-- IntegerValue&#45;&gt;StringValue -->
<g id="edge18" class="edge">
<title>IntegerValue&#45;&gt;StringValue</title>
<path fill="none" stroke="black" d="M523.58,-222.57C498.7,-215.58 470.09,-206.67 446.9,-198.65"/>
<polygon fill="black" stroke="black" points="448.34,-195.44 437.74,-195.41 446.01,-202.04 448.34,-195.44"/>
</g>
<!-- IntegerValue&#45;&gt;JSONValue -->
<g id="edge19" class="edge">
<title>IntegerValue&#45;&gt;JSONValue</title>
<path fill="none" stroke="black" d="M640.56,-222.22C689.24,-215.91 761.02,-207.99 822.81,-196 833.13,-194 843.96,-191.51 854.52,-188.96"/>
<polygon fill="black" stroke="black" points="855.05,-192.44 863.94,-186.67 853.39,-185.63 855.05,-192.44"/>
</g>
<!-- IntegerValue&#45;&gt;FloatValue -->
<g id="edge17" class="edge">
<title>IntegerValue&#45;&gt;FloatValue</title>
<path fill="none" stroke="black" d="M617.59,-217.59C639.46,-209.33 668.56,-199.61 694.56,-191.75"/>
<polygon fill="black" stroke="black" points="695.43,-195.14 704.02,-188.94 693.44,-188.43 695.43,-195.14"/>
</g>
<!-- NullValue&#45;&gt;StringValue -->
<g id="edge20" class="edge">
<title>NullValue&#45;&gt;StringValue</title>
<path fill="none" stroke="black" d="M1044.18,-164.53C1027.49,-159.45 1007.81,-154.16 989.63,-151 778.37,-114.32 718.43,-104.77 507.27,-142 487.29,-145.52 466.04,-152.37 447.91,-159.22"/>
<polygon fill="black" stroke="black" points="446.8,-155.89 438.76,-162.79 449.35,-162.41 446.8,-155.89"/>
</g>
<!-- NullValue&#45;&gt;JSONValue -->
<g id="edge21" class="edge">
<title>NullValue&#45;&gt;JSONValue</title>
<path fill="none" stroke="black" d="M1029.07,-184.46C1018.81,-184.71 1007.95,-184.8 997.28,-184.72"/>
<polygon fill="black" stroke="black" points="997.36,-181.22 987.31,-184.6 997.27,-188.22 997.36,-181.22"/>
</g>
<!-- FileValue -->
<g id="node7" class="node">
<title>FileValue</title>
<ellipse fill="none" stroke="black" cx="147.49" cy="-107" rx="57.52" ry="18"/>
<text text-anchor="middle" x="147.49" y="-102.33" font-family="Times,serif" font-size="14.00">FileValue</text>
</g>
<!-- FileValue&#45;&gt;StringValue -->
<g id="edge22" class="edge">
<title>FileValue&#45;&gt;StringValue</title>
<path fill="none" stroke="black" d="M190.89,-119.13C232.42,-131.02 296.04,-149.22 342.22,-162.43"/>
<polygon fill="black" stroke="black" points="341.23,-165.79 351.81,-165.18 343.16,-159.06 341.23,-165.79"/>
</g>
<!-- FileValue&#45;&gt;JSONValue -->
<g id="edge23" class="edge">
<title>FileValue&#45;&gt;JSONValue</title>
<path fill="none" stroke="black" d="M204.29,-103.91C320.7,-98.73 597.33,-93.04 822.81,-140 841.85,-143.97 862.05,-151.01 879.3,-157.97"/>
<polygon fill="black" stroke="black" points="877.65,-161.07 888.23,-161.68 880.34,-154.61 877.65,-161.07"/>
</g>
<!-- ValueSchemaValue -->
<g id="node8" class="node">
<title>ValueSchemaValue</title>
<ellipse fill="none" stroke="black" cx="147.49" cy="-363" rx="105.4" ry="18"/>
<text text-anchor="middle" x="147.49" y="-358.32" font-family="Times,serif" font-size="14.00">ValueSchemaValue</text>
</g>
<!-- ValueSchemaValue&#45;&gt;StringValue -->
<g id="edge24" class="edge">
<title>ValueSchemaValue&#45;&gt;StringValue</title>
<path fill="none" stroke="black" d="M231.82,-351.87C253.68,-346.24 276.33,-337.76 294.97,-325 338.93,-294.91 370.99,-240.12 387.49,-206.89"/>
<polygon fill="black" stroke="black" points="390.45,-208.81 391.64,-198.28 384.14,-205.77 390.45,-208.81"/>
</g>
<!-- ValueSchemaValue&#45;&gt;JSONValue -->
<g id="edge25" class="edge">
<title>ValueSchemaValue&#45;&gt;JSONValue</title>
<path fill="none" stroke="black" d="M219.44,-376.49C349.88,-397.33 631.88,-423.53 822.81,-305 861.94,-280.71 892.12,-235.47 908.77,-206.06"/>
<polygon fill="black" stroke="black" points="911.82,-207.79 913.56,-197.34 905.68,-204.42 911.82,-207.79"/>
</g>
<!-- FieldSchemaMappingValue -->
<g id="node9" class="node">
<title>FieldSchemaMappingValue</title>
<ellipse fill="none" stroke="black" cx="147.49" cy="-18" rx="147.49" ry="18"/>
<text text-anchor="middle" x="147.49" y="-13.32" font-family="Times,serif" font-size="14.00">FieldSchemaMappingValue</text>
</g>
<!-- FieldSchemaMappingValue&#45;&gt;StringValue -->
<g id="edge26" class="edge">
<title>FieldSchemaMappingValue&#45;&gt;StringValue</title>
<path fill="none" stroke="black" d="M201.24,-35.15C230.17,-45.8 265.94,-61.07 294.97,-80 326.54,-100.58 357.28,-131.12 377.29,-152.83"/>
<polygon fill="black" stroke="black" points="374.59,-155.07 383.9,-160.13 379.78,-150.37 374.59,-155.07"/>
</g>
<!-- FieldSchemaMappingValue&#45;&gt;JSONValue -->
<g id="edge27" class="edge">
<title>FieldSchemaMappingValue&#45;&gt;JSONValue</title>
<path fill="none" stroke="black" d="M291.73,-21.99C431.11,-29.73 647.01,-52.08 822.81,-116 847.73,-125.06 873.12,-140.81 892.14,-154.17"/>
<polygon fill="black" stroke="black" points="890.07,-156.99 900.23,-160 894.16,-151.32 890.07,-156.99"/>
</g>
<!-- WorkflowValue -->
<g id="node10" class="node">
<title>WorkflowValue</title>
<ellipse fill="none" stroke="black" cx="147.49" cy="-298" rx="84.88" ry="18"/>
<text text-anchor="middle" x="147.49" y="-293.32" font-family="Times,serif" font-size="14.00">WorkflowValue</text>
</g>
<!-- WorkflowValue&#45;&gt;StringValue -->
<g id="edge28" class="edge">
<title>WorkflowValue&#45;&gt;StringValue</title>
<path fill="none" stroke="black" d="M183.74,-281.33C228.85,-259.99 307.01,-223.03 356.02,-199.86"/>
<polygon fill="black" stroke="black" points="357.4,-203.07 364.94,-195.64 354.41,-196.75 357.4,-203.07"/>
</g>
<!-- WorkflowValue&#45;&gt;JSONValue -->
<g id="edge29" class="edge">
<title>WorkflowValue&#45;&gt;JSONValue</title>
<path fill="none" stroke="black" d="M210.97,-310.21C334.26,-331.21 614.9,-363.58 822.81,-271 855.67,-256.37 884.77,-226.52 903.08,-204.57"/>
<polygon fill="black" stroke="black" points="905.72,-206.87 909.29,-196.89 900.28,-202.47 905.72,-206.87"/>
</g>
</g>
</svg>
