<?xml version="1.0" encoding="UTF-8" standalone="no"?>
<!DOCTYPE svg PUBLIC "-//W3C//DTD SVG 1.1//EN"
 "http://www.w3.org/Graphics/SVG/1.1/DTD/svg11.dtd">
<!-- Generated by graphviz version 12.2.1 (0)
 -->
<!-- Pages: 1 -->
<svg width="1162pt" height="557pt"
 viewBox="0.00 0.00 1162.36 557.06" xmlns="http://www.w3.org/2000/svg" xmlns:xlink="http://www.w3.org/1999/xlink">
<g id="graph0" class="graph" transform="scale(1 1) rotate(0) translate(4 553.06)">
<polygon fill="white" stroke="none" points="-4,4 -4,-553.06 1158.36,-553.06 1158.36,4 -4,4"/>
<!-- Value -->
<g id="node1" class="node">
<title>Value</title>
<ellipse fill="none" stroke="black" cx="325.89" cy="-500.23" rx="38.58" ry="18"/>
<text text-anchor="middle" x="325.89" y="-495.55" font-family="Times,serif" font-size="14.00">Value</text>
</g>
<!-- StringValue -->
<g id="node2" class="node">
<title>StringValue</title>
<ellipse fill="none" stroke="black" cx="537.43" cy="-287.23" rx="70.15" ry="18"/>
<text text-anchor="middle" x="537.43" y="-282.55" font-family="Times,serif" font-size="14.00">StringValue</text>
</g>
<!-- Value&#45;&gt;StringValue -->
<g id="edge1" class="edge">
<title>Value&#45;&gt;StringValue</title>
<path fill="none" stroke="black" d="M362.32,-493.64C384.08,-488.16 411.49,-478.54 431.28,-462.23 479.45,-422.52 511.11,-354.62 526.18,-316.11"/>
<polygon fill="black" stroke="black" points="529.34,-317.63 529.62,-307.04 522.8,-315.15 529.34,-317.63"/>
</g>
<!-- JSONValue -->
<g id="node3" class="node">
<title>JSONValue</title>
<ellipse fill="none" stroke="black" cx="1088.94" cy="-279.23" rx="65.41" ry="18"/>
<text text-anchor="middle" x="1088.94" y="-274.55" font-family="Times,serif" font-size="14.00">JSONValue</text>
</g>
<!-- Value&#45;&gt;JSONValue -->
<g id="edge2" class="edge">
<title>Value&#45;&gt;JSONValue</title>
<path fill="none" stroke="black" d="M359.82,-509.37C463.8,-536.14 789.94,-603.69 987.53,-459.23 1039.06,-421.55 1067.53,-348.98 1080.06,-308.44"/>
<polygon fill="black" stroke="black" points="1083.41,-309.47 1082.88,-298.89 1076.69,-307.48 1083.41,-309.47"/>
</g>
<!-- StringValue&#45;&gt;StringValue -->
<g id="edge6" class="edge">
<title>StringValue&#45;&gt;StringValue</title>
<path fill="none" stroke="black" d="M505.24,-303.52C497.48,-313.62 508.21,-323.23 537.43,-323.23 554.78,-323.23 565.61,-319.84 569.93,-314.97"/>
<polygon fill="black" stroke="black" points="573.43,-314.93 569.66,-305.03 566.43,-315.12 573.43,-314.93"/>
</g>
<!-- StringValue&#45;&gt;JSONValue -->
<g id="edge7" class="edge">
<title>StringValue&#45;&gt;JSONValue</title>
<path fill="none" stroke="black" d="M604.72,-281.68C707.58,-277.37 905.04,-274.42 1012.97,-275.51"/>
<polygon fill="black" stroke="black" points="1012.84,-279.01 1022.88,-275.63 1012.93,-272.01 1012.84,-279.01"/>
</g>
<!-- BooleanValue -->
<g id="node4" class="node">
<title>BooleanValue</title>
<ellipse fill="none" stroke="black" cx="722.15" cy="-224.23" rx="78.57" ry="18"/>
<text text-anchor="middle" x="722.15" y="-219.55" font-family="Times,serif" font-size="14.00">BooleanValue</text>
</g>
<!-- StringValue&#45;&gt;BooleanValue -->
<g id="edge3" class="edge">
<title>StringValue&#45;&gt;BooleanValue</title>
<path fill="none" stroke="black" d="M570.26,-270.99C593.56,-261.57 626.01,-249.97 654.85,-240.57"/>
<polygon fill="black" stroke="black" points="655.81,-243.94 664.26,-237.54 653.67,-237.27 655.81,-243.94"/>
</g>
<!-- FloatValue -->
<g id="node5" class="node">
<title>FloatValue</title>
<ellipse fill="none" stroke="black" cx="722.15" cy="-390.23" rx="64.36" ry="18"/>
<text text-anchor="middle" x="722.15" y="-385.55" font-family="Times,serif" font-size="14.00">FloatValue</text>
</g>
<!-- StringValue&#45;&gt;FloatValue -->
<g id="edge5" class="edge">
<title>StringValue&#45;&gt;FloatValue</title>
<path fill="none" stroke="black" d="M570.05,-303.32C590.39,-316.75 617.77,-335.37 643.58,-349.23 656.85,-356.35 672.05,-362.94 685.45,-368.85"/>
<polygon fill="black" stroke="black" points="683.81,-371.95 694.37,-372.83 686.67,-365.56 683.81,-371.95"/>
</g>
<!-- IntegerValue -->
<g id="node6" class="node">
<title>IntegerValue</title>
<ellipse fill="none" stroke="black" cx="912.12" cy="-335.23" rx="75.41" ry="18"/>
<text text-anchor="middle" x="912.12" y="-330.55" font-family="Times,serif" font-size="14.00">IntegerValue</text>
</g>
<!-- StringValue&#45;&gt;IntegerValue -->
<g id="edge4" class="edge">
<title>StringValue&#45;&gt;IntegerValue</title>
<path fill="none" stroke="black" d="M607.69,-288.43C619.65,-289.98 631.97,-291.68 643.58,-293.23 713.09,-302.47 792.89,-312.2 847.12,-320.48"/>
<polygon fill="black" stroke="black" points="846.37,-323.91 856.79,-321.99 847.45,-316.99 846.37,-323.91"/>
</g>
<!-- JSONValue&#45;&gt;StringValue -->
<g id="edge8" class="edge">
<title>JSONValue&#45;&gt;StringValue</title>
<path fill="none" stroke="black" d="M1026.16,-284.58C926.06,-288.93 728.53,-291.96 618.04,-290.99"/>
<polygon fill="black" stroke="black" points="618.19,-287.49 608.15,-290.89 618.12,-294.49 618.19,-287.49"/>
</g>
<!-- JSONValue&#45;&gt;JSONValue -->
<g id="edge9" class="edge">
<title>JSONValue&#45;&gt;JSONValue</title>
<path fill="none" stroke="black" d="M1058.13,-295.52C1050.7,-305.62 1060.97,-315.23 1088.94,-315.23 1105.55,-315.23 1115.92,-311.84 1120.05,-306.97"/>
<polygon fill="black" stroke="black" points="1123.55,-306.94 1119.8,-297.03 1116.55,-307.12 1123.55,-306.94"/>
</g>
<!-- BooleanValue&#45;&gt;StringValue -->
<g id="edge10" class="edge">
<title>BooleanValue&#45;&gt;StringValue</title>
<path fill="none" stroke="black" d="M688.33,-240.86C664.29,-250.54 630.9,-262.43 601.73,-271.86"/>
<polygon fill="black" stroke="black" points="600.7,-268.52 592.23,-274.88 602.82,-275.19 600.7,-268.52"/>
</g>
<!-- BooleanValue&#45;&gt;JSONValue -->
<g id="edge11" class="edge">
<title>BooleanValue&#45;&gt;JSONValue</title>
<path fill="none" stroke="black" d="M795.54,-230.92C848.84,-236.36 922.97,-244.96 987.53,-256.23 1000.88,-258.56 1015.13,-261.52 1028.57,-264.54"/>
<polygon fill="black" stroke="black" points="1027.63,-267.92 1038.16,-266.74 1029.19,-261.1 1027.63,-267.92"/>
</g>
<!-- FloatValue&#45;&gt;StringValue -->
<g id="edge13" class="edge">
<title>FloatValue&#45;&gt;StringValue</title>
<path fill="none" stroke="black" d="M669.56,-379.53C660.75,-375.84 651.79,-371.64 643.58,-367.23 614.16,-351.44 582.72,-329.46 561.96,-312.28"/>
<polygon fill="black" stroke="black" points="564.51,-309.85 554.64,-305.99 559.95,-315.16 564.51,-309.85"/>
</g>
<!-- FloatValue&#45;&gt;JSONValue -->
<g id="edge14" class="edge">
<title>FloatValue&#45;&gt;JSONValue</title>
<path fill="none" stroke="black" d="M785.76,-393.58C840.98,-394.24 922.54,-389.56 987.53,-362.23 1017.86,-349.47 1046.14,-324.41 1064.91,-305.15"/>
<polygon fill="black" stroke="black" points="1067.22,-307.8 1071.56,-298.14 1062.14,-302.99 1067.22,-307.8"/>
</g>
<!-- FloatValue&#45;&gt;IntegerValue -->
<g id="edge12" class="edge">
<title>FloatValue&#45;&gt;IntegerValue</title>
<path fill="none" stroke="black" d="M757.62,-374.77C780.93,-366.68 812.53,-357.04 841.01,-349.19"/>
<polygon fill="black" stroke="black" points="841.55,-352.67 850.28,-346.67 839.71,-345.91 841.55,-352.67"/>
</g>
<!-- IntegerValue&#45;&gt;StringValue -->
<g id="edge16" class="edge">
<title>IntegerValue&#45;&gt;StringValue</title>
<path fill="none" stroke="black" d="M836.69,-333.94C782.98,-328.99 708.76,-319.9 643.58,-311.23 626.87,-309 608.69,-306.46 592.22,-303.69"/>
<polygon fill="black" stroke="black" points="593.07,-300.29 582.62,-302 591.86,-307.18 593.07,-300.29"/>
</g>
<!-- IntegerValue&#45;&gt;JSONValue -->
<g id="edge17" class="edge">
<title>IntegerValue&#45;&gt;JSONValue</title>
<path fill="none" stroke="black" d="M958.6,-320.66C981.76,-313.24 1010.07,-304.17 1034.29,-296.41"/>
<polygon fill="black" stroke="black" points="1035.2,-299.8 1043.66,-293.41 1033.07,-293.13 1035.2,-299.8"/>
</g>
<!-- IntegerValue&#45;&gt;FloatValue -->
<g id="edge15" class="edge">
<title>IntegerValue&#45;&gt;FloatValue</title>
<path fill="none" stroke="black" d="M874.9,-351.28C850.35,-359.74 817.22,-369.77 788.17,-377.66"/>
<polygon fill="black" stroke="black" points="787.48,-374.22 778.73,-380.18 789.29,-380.98 787.48,-374.22"/>
</g>
<!-- NullValue -->
<g id="node7" class="node">
<title>NullValue</title>
<ellipse fill="none" stroke="black" cx="325.89" cy="-435.23" rx="59.63" ry="18"/>
<text text-anchor="middle" x="325.89" y="-430.55" font-family="Times,serif" font-size="14.00">NullValue</text>
</g>
<!-- NullValue&#45;&gt;StringValue -->
<g id="edge18" class="edge">
<title>NullValue&#45;&gt;StringValue</title>
<path fill="none" stroke="black" d="M363.63,-420.89C384.34,-412.02 410.2,-399.6 431.28,-385.23 462.09,-364.22 492.75,-334.35 512.95,-313.12"/>
<polygon fill="black" stroke="black" points="515.35,-315.68 519.64,-305.99 510.24,-310.89 515.35,-315.68"/>
</g>
<!-- NullValue&#45;&gt;JSONValue -->
<g id="edge19" class="edge">
<title>NullValue&#45;&gt;JSONValue</title>
<path fill="none" stroke="black" d="M371.14,-447.38C483.08,-475.45 783.12,-534 987.53,-418.23 1031.52,-393.31 1061.33,-340.3 1076.42,-307.42"/>
<polygon fill="black" stroke="black" points="1079.52,-309.05 1080.36,-298.49 1073.12,-306.23 1079.52,-309.05"/>
</g>
<!-- StringMapValue -->
<g id="node8" class="node">
<title>StringMapValue</title>
<ellipse fill="none" stroke="black" cx="92.24" cy="-317.23" rx="92.24" ry="18"/>
<text text-anchor="middle" x="92.24" y="-312.55" font-family="Times,serif" font-size="14.00">StringMapValue</text>
</g>
<!-- StringMapValue&#45;&gt;StringValue -->
<g id="edge22" class="edge">
<title>StringMapValue&#45;&gt;StringValue</title>
<path fill="none" stroke="black" d="M180.01,-311.35C260.71,-305.89 379.9,-297.82 457.86,-292.55"/>
<polygon fill="black" stroke="black" points="457.8,-296.06 467.54,-291.89 457.33,-289.07 457.8,-296.06"/>
</g>
<!-- StringMapValue&#45;&gt;JSONValue -->
<g id="edge23" class="edge">
<title>StringMapValue&#45;&gt;JSONValue</title>
<path fill="none" stroke="black" d="M95.33,-299.02C102.25,-248.03 129.44,-103.44 220.49,-41.23 336.64,38.14 395.76,-22.23 536.43,-22.23 536.43,-22.23 536.43,-22.23 723.15,-22.23 841.62,-22.23 892.35,14.31 987.53,-56.23 1051.34,-103.52 1075.51,-200.78 1083.9,-249.72"/>
<polygon fill="black" stroke="black" points="1080.4,-249.97 1085.43,-259.29 1087.31,-248.87 1080.4,-249.97"/>
</g>
<!-- StringMapValue&#45;&gt;StringMapValue -->
<g id="edge20" class="edge">
<title>StringMapValue&#45;&gt;StringMapValue</title>
<path fill="none" stroke="black" d="M51.53,-333.52C41.71,-343.62 55.28,-353.23 92.24,-353.23 114.19,-353.23 127.89,-349.84 133.35,-344.97"/>
<polygon fill="black" stroke="black" points="136.85,-344.91 133.01,-335.03 129.85,-345.14 136.85,-344.91"/>
</g>
<!-- DataValue -->
<g id="node9" class="node">
<title>DataValue</title>
<ellipse fill="none" stroke="black" cx="325.89" cy="-340.23" rx="62.26" ry="18"/>
<text text-anchor="middle" x="325.89" y="-335.55" font-family="Times,serif" font-size="14.00">DataValue</text>
</g>
<!-- StringMapValue&#45;&gt;DataValue -->
<g id="edge21" class="edge">
<title>StringMapValue&#45;&gt;DataValue</title>
<path fill="none" stroke="black" d="M184.13,-319.64C210.72,-321.98 239.15,-324.99 263.45,-328.09"/>
<polygon fill="black" stroke="black" points="262.79,-331.53 273.16,-329.36 263.7,-324.59 262.79,-331.53"/>
</g>
<!-- DataValue&#45;&gt;StringValue -->
<g id="edge26" class="edge">
<title>DataValue&#45;&gt;StringValue</title>
<path fill="none" stroke="black" d="M373.91,-328.33C403.81,-320.77 442.84,-310.9 475.15,-302.73"/>
<polygon fill="black" stroke="black" points="475.97,-306.13 484.81,-300.28 474.25,-299.34 475.97,-306.13"/>
</g>
<!-- DataValue&#45;&gt;JSONValue -->
<g id="edge27" class="edge">
<title>DataValue&#45;&gt;JSONValue</title>
<path fill="none" stroke="black" d="M368.56,-353.74C428.57,-372.42 543.16,-405.19 643.58,-417.23 712.92,-425.54 731.04,-422.05 800.71,-417.23 884.34,-411.44 913.53,-430.61 987.53,-391.23 1024.32,-371.64 1054.27,-332.94 1071.61,-306.58"/>
<polygon fill="black" stroke="black" points="1074.38,-308.73 1076.81,-298.42 1068.48,-304.97 1074.38,-308.73"/>
</g>
<!-- DataValue&#45;&gt;StringMapValue -->
<g id="edge25" class="edge">
<title>DataValue&#45;&gt;StringMapValue</title>
<path fill="none" stroke="black" d="M263.5,-340.17C235.03,-338.15 200.89,-334.88 170.68,-331.32"/>
<polygon fill="black" stroke="black" points="171.16,-327.86 160.82,-330.13 170.32,-334.81 171.16,-327.86"/>
</g>
<!-- DataValue&#45;&gt;DataValue -->
<g id="edge24" class="edge">
<title>DataValue&#45;&gt;DataValue</title>
<path fill="none" stroke="black" d="M290.1,-355.39C279.25,-365.89 291.18,-376.23 325.89,-376.23 347.58,-376.23 360.37,-372.19 364.27,-366.6"/>
<polygon fill="black" stroke="black" points="367.68,-365.82 362.02,-356.87 360.86,-367.4 367.68,-365.82"/>
</g>
<!-- FileValue -->
<g id="node10" class="node">
<title>FileValue</title>
<ellipse fill="none" stroke="black" cx="325.89" cy="-248.23" rx="57.52" ry="18"/>
<text text-anchor="middle" x="325.89" y="-243.55" font-family="Times,serif" font-size="14.00">FileValue</text>
</g>
<!-- FileValue&#45;&gt;StringValue -->
<g id="edge28" class="edge">
<title>FileValue&#45;&gt;StringValue</title>
<path fill="none" stroke="black" d="M376.02,-257.37C403.58,-262.5 438.39,-268.98 468.53,-274.59"/>
<polygon fill="black" stroke="black" points="467.87,-278.03 478.34,-276.41 469.15,-271.14 467.87,-278.03"/>
</g>
<!-- FileValue&#45;&gt;JSONValue -->
<g id="edge29" class="edge">
<title>FileValue&#45;&gt;JSONValue</title>
<path fill="none" stroke="black" d="M372.58,-237.29C457.03,-218.4 643.32,-183.02 800.71,-197.23 884.76,-204.81 907.23,-205.24 987.53,-231.23 1008.43,-237.99 1030.57,-248.21 1048.73,-257.49"/>
<polygon fill="black" stroke="black" points="1047.09,-260.58 1057.58,-262.11 1050.33,-254.38 1047.09,-260.58"/>
</g>
<!-- SequenceValue -->
<g id="node11" class="node">
<title>SequenceValue</title>
<ellipse fill="none" stroke="black" cx="325.89" cy="-176.23" rx="86.98" ry="18"/>
<text text-anchor="middle" x="325.89" y="-171.55" font-family="Times,serif" font-size="14.00">SequenceValue</text>
</g>
<!-- SequenceValue&#45;&gt;StringValue -->
<g id="edge31" class="edge">
<title>SequenceValue&#45;&gt;StringValue</title>
<path fill="none" stroke="black" d="M368.22,-192.33C387.68,-200.34 411.02,-210.58 431.28,-221.23 455.72,-234.06 482.01,-250.57 502.2,-263.86"/>
<polygon fill="black" stroke="black" points="500.05,-266.64 510.32,-269.27 503.93,-260.81 500.05,-266.64"/>
</g>
<!-- SequenceValue&#45;&gt;JSONValue -->
<g id="edge32" class="edge">
<title>SequenceValue&#45;&gt;JSONValue</title>
<path fill="none" stroke="black" d="M392.9,-164.52C514.97,-145.81 782.25,-118.63 987.53,-196.23 1018.49,-207.93 1046.87,-233.38 1065.5,-253.03"/>
<polygon fill="black" stroke="black" points="1062.74,-255.2 1072.08,-260.2 1067.89,-250.46 1062.74,-255.2"/>
</g>
<!-- SequenceValue&#45;&gt;SequenceValue -->
<g id="edge30" class="edge">
<title>SequenceValue&#45;&gt;SequenceValue</title>
<path fill="none" stroke="black" d="M288.7,-192.89C280.44,-202.85 292.83,-212.23 325.89,-212.23 345.51,-212.23 357.86,-208.92 362.91,-204.15"/>
<polygon fill="black" stroke="black" points="366.41,-204.45 363.05,-194.4 359.41,-204.35 366.41,-204.45"/>
</g>
<!-- ValueSchemaValue -->
<g id="node12" class="node">
<title>ValueSchemaValue</title>
<ellipse fill="none" stroke="black" cx="325.89" cy="-122.23" rx="105.4" ry="18"/>
<text text-anchor="middle" x="325.89" y="-117.55" font-family="Times,serif" font-size="14.00">ValueSchemaValue</text>
</g>
<!-- ValueSchemaValue&#45;&gt;StringValue -->
<g id="edge33" class="edge">
<title>ValueSchemaValue&#45;&gt;StringValue</title>
<path fill="none" stroke="black" d="M401.68,-135.01C412.11,-138.63 422.32,-143.27 431.28,-149.23 473.43,-177.23 505.55,-227.91 522.64,-259.45"/>
<polygon fill="black" stroke="black" points="519.4,-260.79 527.15,-268.01 525.59,-257.53 519.4,-260.79"/>
</g>
<!-- ValueSchemaValue&#45;&gt;JSONValue -->
<g id="edge34" class="edge">
<title>ValueSchemaValue&#45;&gt;JSONValue</title>
<path fill="none" stroke="black" d="M393.04,-108.07C517.65,-84.98 792.17,-51.42 987.53,-154.23 1028.12,-175.59 1058.05,-221.23 1074.24,-251.05"/>
<polygon fill="black" stroke="black" points="1071.13,-252.67 1078.87,-259.91 1077.34,-249.43 1071.13,-252.67"/>
</g>
<!-- WorkflowValue -->
<g id="node13" class="node">
<title>WorkflowValue</title>
<ellipse fill="none" stroke="black" cx="325.89" cy="-68.23" rx="84.88" ry="18"/>
<text text-anchor="middle" x="325.89" y="-63.55" font-family="Times,serif" font-size="14.00">WorkflowValue</text>
</g>
<!-- WorkflowValue&#45;&gt;StringValue -->
<g id="edge35" class="edge">
<title>WorkflowValue&#45;&gt;StringValue</title>
<path fill="none" stroke="black" d="M397.66,-78.14C409.7,-82.08 421.46,-87.58 431.28,-95.23 485.42,-137.37 515.5,-215.55 528.52,-257.99"/>
<polygon fill="black" stroke="black" points="525.14,-258.9 531.32,-267.5 531.85,-256.92 525.14,-258.9"/>
</g>
<!-- WorkflowValue&#45;&gt;JSONValue -->
<g id="edge36" class="edge">
<title>WorkflowValue&#45;&gt;JSONValue</title>
<path fill="none" stroke="black" d="M406.19,-62.03C560.45,-51.54 894.02,-36.94 987.53,-98.23 1041.53,-133.62 1069.2,-208.5 1080.89,-250"/>
<polygon fill="black" stroke="black" points="1077.48,-250.78 1083.44,-259.54 1084.24,-248.97 1077.48,-250.78"/>
</g>
</g>
</svg>
